<svg xmlns="http://www.w3.org/2000/svg" fill="none" viewBox="0 0 20 20"><path stroke="currentColor" stroke-linecap="round" stroke-linejoin="round" stroke-width="2" d="M15 9V6A5 5 0 0 0 5 6v3m.8 10h8.4c1.68 0 2.52 0 3.162-.327a3 3 0 0 0 1.311-1.311C19 16.72 19 15.88 19 14.2v-.4c0-1.68 0-2.52-.327-3.162a3 3 0 0 0-1.311-1.311C16.72 9 15.88 9 14.2 9H5.8c-1.68 0-2.52 0-3.162.327a3 3 0 0 0-1.311 1.311C1 11.28 1 12.12 1 13.8v.4c0 1.68 0 2.52.327 3.162a3 3 0 0 0 1.311 1.311C3.28 19 4.12 19 5.8 19"/></svg>