<svg xmlns="http://www.w3.org/2000/svg" fill="none" viewBox="0 0 18 20"><path stroke="currentColor" stroke-linecap="round" stroke-linejoin="round" stroke-width="2" d="M14 9V6A5 5 0 0 0 4 6v3m1.8 10h6.4c1.68 0 2.52 0 3.162-.327a3 3 0 0 0 1.311-1.311C17 16.72 17 15.88 17 14.2v-.4c0-1.68 0-2.52-.327-3.162a3 3 0 0 0-1.311-1.311C14.72 9 13.88 9 12.2 9H5.8c-1.68 0-2.52 0-3.162.327a3 3 0 0 0-1.311 1.311C1 11.28 1 12.12 1 13.8v.4c0 1.68 0 2.52.327 3.162a3 3 0 0 0 1.311 1.311C3.28 19 4.12 19 5.8 19"/></svg>