<svg xmlns="http://www.w3.org/2000/svg" fill="none" viewBox="0 0 20 20"><path stroke="currentColor" stroke-linecap="round" stroke-linejoin="round" stroke-width="2" d="M13 7h.01M13 13a6 6 0 1 0-5.946-5.193c.058.434.087.651.068.789a.85.85 0 0 1-.117.346c-.068.121-.187.24-.426.479l-5.11 5.11c-.173.173-.26.26-.322.36a1 1 0 0 0-.12.29C1 15.296 1 15.418 1 15.663V17.4c0 .56 0 .84.109 1.054a1 1 0 0 0 .437.437C1.76 19 2.04 19 2.6 19h1.737c.245 0 .367 0 .482-.028a1 1 0 0 0 .29-.12c.1-.061.187-.148.36-.32l5.11-5.111c.239-.239.358-.358.48-.426a.85.85 0 0 1 .345-.117c.138-.02.355.01.789.068Q12.589 13 13 13"/></svg>